<svg xmlns="http://www.w3.org/2000/svg" viewBox="0 0 841.9 595.3">
  <g fill="#61DAFB">
    <path
      d="M666.3 296.5c0-25.1-20.4-45.5-45.5-45.5-25.1 0-45.5 20.4-45.5 45.5s20.4 45.5 45.5 45.5c25.1 0 45.5-20.4 45.5-45.5z" />
    <path
      d="M421 296.5c0-25.1-20.4-45.5-45.5-45.5-25.1 0-45.5 20.4-45.5 45.5s20.4 45.5 45.5 45.5c25.1 0 45.5-20.4 45.5-45.5z" />
    <path
      d="M595.3 421c0-25.1-20.4-45.5-45.5-45.5-25.1 0-45.5 20.4-45.5 45.5s20.4 45.5 45.5 45.5c25.1 0 45.5-20.4 45.5-45.5z" />
  </g>
</svg>